<svg width="703" height="145" viewBox="0 0 703 145" fill="none" xmlns="http://www.w3.org/2000/svg">
<path d="M192.812 60.7863C192.812 90.6592 211.941 105.819 237.346 105.819C262.602 105.819 283.524 90.6592 283.524 60.7863V0H254.233V60.7863C254.233 71.6357 249.003 78.4723 237.944 78.4723C226.885 78.4723 221.954 71.6357 221.954 60.7863V0H192.812V60.7863Z" fill="#14C6DE"/>
<path d="M328.943 32.994V21.4015H299.652V144.609H328.943V93.1858C333.426 100.468 341.645 105.819 353.451 105.819C373.477 105.819 389.169 89.6189 389.169 63.0156C389.169 36.4123 373.477 20.3612 353.451 20.3612C341.795 20.3612 333.276 25.5629 328.943 32.994ZM359.429 63.0156C359.429 74.1622 352.405 80.4043 344.186 80.4043C335.966 80.4043 328.943 74.3108 328.943 63.0156C328.943 51.869 335.966 45.7755 344.186 45.7755C352.405 45.7755 359.429 51.7203 359.429 63.0156Z" fill="#14C6DE"/>
<path d="M442.922 0H401.227V104.778H442.922C476.547 104.778 497.917 82.6337 497.917 52.3148C497.917 21.5501 476.547 0 442.922 0ZM430.518 79.0667V25.2657H440.68C457.567 25.2657 468.178 34.9261 468.178 52.3148C468.178 69.5549 457.567 79.0667 440.68 79.0667H430.518Z" fill="#14C6DE"/>
<path d="M506.338 63.0156C506.338 89.6189 522.18 105.819 542.056 105.819C553.862 105.819 562.38 100.617 566.714 93.1858V104.778H596.005V21.4015H566.714V32.994C562.38 25.5629 554.011 20.3612 542.056 20.3612C522.18 20.3612 506.338 36.4123 506.338 63.0156ZM566.714 63.0156C566.714 74.3108 559.69 80.4043 551.47 80.4043C543.102 80.4043 536.227 74.1622 536.227 63.0156C536.227 51.7203 543.102 45.7755 551.47 45.7755C559.69 45.7755 566.714 51.869 566.714 63.0156Z" fill="#14C6DE"/>
<path d="M653.793 68.6632L636.159 21.4015H603.58L637.952 101.211L617.926 144.46H649.758L702.96 21.4015H670.83L653.793 68.6632Z" fill="#14C6DE"/>
<path fill-rule="evenodd" clip-rule="evenodd" d="M144.615 96.4052V0.000305176L101.684 23.04C98.4379 24.782 96.4125 28.1675 96.4125 31.8513V96.4026H48.2025V60.2525L0 60.2526V144.607L0.00361779 144.605H104.47C107.67 144.605 110.676 143.074 112.558 140.486L144.602 96.4111L144.615 96.4052Z" fill="#14C6DE"/>
<path d="M48.203 48.203V0L7.71896 31.1661C2.91241 34.8664 0 41.2945 0 48.203H48.203Z" fill="#FFDF5C"/>
<path d="M96.4058 94.3975C102.798 94.3975 108.928 91.9641 113.448 87.6325C117.968 83.3009 120.507 77.426 120.507 71.3003C120.507 65.1745 117.968 59.2996 113.448 54.968C108.928 50.6365 102.798 48.203 96.4058 48.203L96.4058 71.3003L96.4058 94.3975Z" fill="#FFDF5C"/>
</svg>
